# Blender v2.79 (sub 0) OBJ File: 'sky_sphere.blend'
# www.blender.org
mtllib sky_sphere.mtl
o sky_sphere
v 0.000000 0.707107 -0.707107
v 0.000000 0.382683 -0.923880
v 0.000000 -0.382684 -0.923880
v 0.000000 -0.923880 -0.382683
v 0.146447 0.923880 -0.353553
v 0.270598 0.707107 -0.653281
v 0.353553 0.382683 -0.853553
v 0.382683 -0.000000 -0.923880
v 0.353553 -0.382684 -0.853553
v 0.270598 -0.707107 -0.653281
v 0.146447 -0.923880 -0.353553
v 0.270598 0.923880 -0.270598
v 0.500000 0.707107 -0.500000
v 0.653281 0.382683 -0.653281
v 0.707107 -0.000000 -0.707107
v 0.653281 -0.382684 -0.653281
v 0.500000 -0.707107 -0.500000
v 0.270598 -0.923880 -0.270598
v 0.353553 0.923880 -0.146447
v 0.653281 0.707107 -0.270598
v 0.853553 0.382683 -0.353553
v 0.923879 -0.000000 -0.382683
v 0.853553 -0.382684 -0.353553
v 0.653281 -0.707107 -0.270598
v 0.353553 -0.923880 -0.146447
v 0.382683 0.923880 -0.000000
v 0.707107 0.707107 -0.000000
v 0.923879 0.382683 -0.000000
v 1.000000 -0.000000 -0.000000
v 0.923879 -0.382684 -0.000000
v 0.707107 -0.707107 -0.000000
v 0.382683 -0.923880 -0.000000
v 0.353553 0.923880 0.146446
v 0.653281 0.707107 0.270598
v 0.853553 0.382683 0.353553
v 0.923879 -0.000000 0.382683
v 0.853553 -0.382684 0.353553
v 0.653281 -0.707107 0.270598
v 0.353553 -0.923880 0.146446
v 0.270598 0.923880 0.270598
v 0.500000 0.707107 0.500000
v 0.653281 0.382683 0.653281
v 0.707106 -0.000000 0.707107
v 0.653281 -0.382684 0.653281
v 0.500000 -0.707107 0.500000
v 0.270598 -0.923880 0.270598
v 0.146446 0.923880 0.353553
v 0.270598 0.707107 0.653281
v 0.353553 0.382683 0.853553
v 0.382683 -0.000000 0.923879
v 0.353553 -0.382684 0.853553
v 0.270598 -0.707107 0.653281
v 0.146446 -0.923880 0.353553
v -0.000000 0.923880 0.382683
v -0.000000 0.707107 0.707106
v -0.000000 0.382683 0.923879
v -0.000000 -0.000000 1.000000
v -0.000000 -0.382684 0.923879
v -0.000000 -0.707107 0.707106
v -0.000000 -0.923880 0.382683
v -0.146447 0.923880 0.353553
v -0.270598 0.707107 0.653281
v -0.353554 0.382683 0.853553
v -0.382684 -0.000000 0.923879
v -0.353554 -0.382684 0.853553
v -0.270598 -0.707107 0.653281
v -0.146447 -0.923880 0.353553
v -0.270598 0.923880 0.270598
v -0.500000 0.707107 0.499999
v -0.653282 0.382683 0.653281
v -0.707107 -0.000000 0.707106
v -0.653282 -0.382684 0.653281
v -0.500000 -0.707107 0.499999
v -0.270598 -0.923880 0.270598
v -0.353553 0.923880 0.146446
v -0.653281 0.707107 0.270597
v -0.853553 0.382683 0.353553
v -0.923879 -0.000000 0.382683
v -0.853553 -0.382684 0.353553
v -0.653281 -0.707107 0.270597
v -0.353553 -0.923880 0.146446
v -0.382683 0.923880 -0.000000
v -0.707106 0.707107 -0.000000
v -0.923879 0.382683 -0.000001
v -1.000000 -0.000000 -0.000001
v -0.923879 -0.382684 -0.000001
v -0.707106 -0.707107 -0.000000
v -0.382683 -0.923880 -0.000000
v -0.353553 0.923880 -0.146447
v -0.653281 0.707107 -0.270598
v -0.853553 0.382683 -0.353554
v -0.923879 -0.000000 -0.382684
v -0.853553 -0.382684 -0.353554
v -0.653281 -0.707107 -0.270598
v -0.353553 -0.923880 -0.146447
v -0.270598 0.923880 -0.270598
v -0.499999 0.707107 -0.500000
v -0.653281 0.382683 -0.653282
v -0.707106 -0.000000 -0.707107
v -0.653281 -0.382684 -0.653282
v -0.499999 -0.707107 -0.500000
v -0.270598 -0.923880 -0.270598
v -0.146446 0.923880 -0.353553
v -0.270598 0.707107 -0.653281
v -0.353553 0.382683 -0.853553
v -0.382683 -0.000000 -0.923880
v -0.353553 -0.382684 -0.853553
v -0.270598 -0.707107 -0.653281
v -0.146446 -0.923880 -0.353553
v -0.000000 1.000000 -0.000000
v 0.000000 0.923880 -0.382683
v 0.000001 -0.000000 -1.000000
v 0.000000 -0.707107 -0.707106
v 0.000000 -1.000000 -0.000000
vt 1.153840 0.000000
vt 1.000000 0.125000
vt 0.937500 0.125000
vt 1.000000 0.500000
vt 0.937500 0.625000
vt 0.937500 0.500000
vt 0.937500 0.375000
vt 1.000000 0.375000
vt 1.000000 0.875000
vt 0.877882 1.000000
vt 0.937500 0.875000
vt 1.000000 0.250000
vt 0.937500 0.250000
vt 0.937500 0.750000
vt 1.000000 0.750000
vt 1.000000 0.625000
vt 0.875000 0.125000
vt 0.875000 0.500000
vt 0.875000 0.375000
vt 0.875000 0.875000
vt 0.875000 0.250000
vt 0.875000 0.750000
vt 0.875000 0.625000
vt 0.812500 0.250000
vt 0.812500 0.125000
vt 0.812500 0.625000
vt 0.812500 0.500000
vt 0.812500 0.375000
vt 0.812500 0.875000
vt 0.812500 0.750000
vt 0.750000 0.250000
vt 0.750000 0.875000
vt 0.750000 0.750000
vt 0.750000 0.125000
vt 0.750000 0.625000
vt 0.750000 0.500000
vt 0.750000 0.375000
vt 0.687500 0.375000
vt 0.687500 0.875000
vt 0.687500 0.250000
vt 0.687500 0.750000
vt 0.687500 0.125000
vt 0.687500 0.625000
vt 0.687500 0.500000
vt 0.625000 0.125000
vt 0.625000 0.500000
vt 0.625000 0.375000
vt 0.625000 0.875000
vt 0.625000 0.250000
vt 0.625000 0.750000
vt 0.625000 0.625000
vt 0.562500 0.250000
vt 0.562500 0.125000
vt 0.562500 0.625000
vt 0.153840 0.000000
vt 0.562500 0.500000
vt 0.562500 0.375000
vt 0.562500 0.875000
vt 0.562500 0.750000
vt 0.500000 0.250000
vt 0.500000 0.875000
vt 0.500000 0.750000
vt 0.500000 0.125000
vt 0.500000 0.625000
vt 0.500000 0.500000
vt 0.500000 0.375000
vt 0.437500 0.375000
vt 0.437500 0.875000
vt 0.437500 0.250000
vt 0.437500 0.750000
vt 0.437500 0.125000
vt 0.437500 0.625000
vt 0.437500 0.500000
vt 0.375000 0.125000
vt 0.375000 0.625000
vt 0.375000 0.500000
vt 0.375000 0.375000
vt 1.375000 0.875000
vt 0.375000 0.250000
vt 0.375000 0.750000
vt 0.312500 0.125000
vt 0.312500 0.750000
vt 0.312500 0.625000
vt 0.312500 0.500000
vt 0.312500 0.375000
vt 1.312500 0.875000
vt 0.312500 0.250000
vt 0.312500 0.875000
vt 0.250000 0.375000
vt 0.250000 0.250000
vt 0.250000 0.875000
vt 0.250000 0.750000
vt 0.250000 0.125000
vt 0.250000 0.625000
vt 0.250000 0.500000
vt 1.250000 0.875000
vt 0.187500 0.375000
vt 1.187500 0.875000
vt 0.187500 0.250000
vt 0.187500 0.875000
vt 0.187500 0.750000
vt 0.187500 0.125000
vt 0.187500 0.625000
vt 0.187500 0.500000
vt 0.125000 0.125000
vt 0.125000 0.625000
vt 0.125000 0.500000
vt 0.125000 0.375000
vt 1.125000 0.875000
vt 0.125000 0.250000
vt 0.125000 0.875000
vt 0.125000 0.750000
vt 0.062500 0.125000
vt 0.062500 0.625000
vt 0.062500 0.500000
vt 0.062500 0.375000
vt 1.062500 0.875000
vt 0.062500 0.250000
vt 0.062500 0.875000
vt 0.062500 0.750000
vt 1.062500 0.250000
vt 1.062500 0.750000
vt 1.062500 0.125000
vt 0.000000 0.750000
vt 0.000000 0.625000
vt 0.000000 0.125000
vt 1.062500 0.500000
vt 1.062500 0.375000
vt 0.375000 0.875000
vt 1.062500 0.625000
vn 0.0000 -1.0000 0.0000
vn 0.0000 -0.9152 -0.4031
vn 0.1542 -0.9152 -0.3724
vn 0.0000 0.0000 -1.0000
vn 0.3548 0.3743 -0.8567
vn 0.3827 0.0000 -0.9239
vn 0.3548 -0.3743 -0.8567
vn 0.0000 -0.3743 -0.9273
vn 0.0000 0.9152 -0.4031
vn 0.0000 1.0000 0.0000
vn 0.1542 0.9152 -0.3724
vn 0.0000 -0.6952 -0.7188
vn 0.2751 -0.6952 -0.6641
vn 0.2751 0.6952 -0.6641
vn 0.0000 0.6952 -0.7188
vn 0.0000 0.3743 -0.9273
vn 0.2850 -0.9152 -0.2850
vn 0.7071 0.0000 -0.7071
vn 0.6557 -0.3743 -0.6557
vn 0.2850 0.9152 -0.2850
vn 0.5083 -0.6952 -0.5083
vn 0.5083 0.6952 -0.5083
vn 0.6557 0.3743 -0.6557
vn 0.6641 -0.6952 -0.2751
vn 0.3724 -0.9152 -0.1542
vn 0.8567 0.3743 -0.3548
vn 0.9239 0.0000 -0.3827
vn 0.8567 -0.3743 -0.3548
vn 0.3724 0.9152 -0.1542
vn 0.6641 0.6952 -0.2751
vn 0.7188 -0.6952 0.0000
vn 0.4031 0.9152 0.0000
vn 0.7188 0.6952 0.0000
vn 0.4031 -0.9152 0.0000
vn 0.9273 0.3743 0.0000
vn 1.0000 0.0000 0.0000
vn 0.9273 -0.3743 0.0000
vn 0.8567 -0.3743 0.3548
vn 0.3724 0.9152 0.1542
vn 0.6641 -0.6952 0.2751
vn 0.6641 0.6952 0.2751
vn 0.3724 -0.9152 0.1542
vn 0.8567 0.3743 0.3548
vn 0.9239 0.0000 0.3827
vn 0.2850 -0.9152 0.2850
vn 0.7071 0.0000 0.7071
vn 0.6557 -0.3743 0.6557
vn 0.2850 0.9152 0.2850
vn 0.5083 -0.6952 0.5083
vn 0.5083 0.6952 0.5083
vn 0.6557 0.3743 0.6557
vn 0.2751 -0.6952 0.6641
vn 0.1542 -0.9152 0.3724
vn 0.3548 0.3743 0.8567
vn 0.3827 0.0000 0.9239
vn 0.3548 -0.3743 0.8567
vn 0.1542 0.9152 0.3724
vn 0.2751 0.6952 0.6641
vn 0.0000 -0.6952 0.7188
vn 0.0000 0.9152 0.4031
vn 0.0000 0.6952 0.7188
vn 0.0000 -0.9152 0.4031
vn 0.0000 0.3743 0.9273
vn 0.0000 0.0000 1.0000
vn 0.0000 -0.3743 0.9273
vn -0.3548 -0.3743 0.8567
vn -0.1542 0.9152 0.3724
vn -0.2751 -0.6952 0.6641
vn -0.2751 0.6952 0.6641
vn -0.1542 -0.9152 0.3724
vn -0.3548 0.3743 0.8567
vn -0.3827 0.0000 0.9239
vn -0.2850 -0.9152 0.2850
vn -0.6557 0.3743 0.6557
vn -0.7071 0.0000 0.7071
vn -0.6557 -0.3743 0.6557
vn -0.2850 0.9152 0.2850
vn -0.5083 -0.6952 0.5083
vn -0.5083 0.6952 0.5083
vn -0.3724 -0.9152 0.1542
vn -0.6641 0.6952 0.2751
vn -0.8567 0.3743 0.3548
vn -0.9239 0.0000 0.3827
vn -0.8567 -0.3743 0.3548
vn -0.3724 0.9152 0.1542
vn -0.6641 -0.6952 0.2751
vn -0.9273 -0.3743 0.0000
vn -0.7188 -0.6952 0.0000
vn -0.4031 0.9152 0.0000
vn -0.7188 0.6952 0.0000
vn -0.4031 -0.9152 0.0000
vn -0.9273 0.3743 0.0000
vn -1.0000 0.0000 0.0000
vn -0.8567 -0.3743 -0.3548
vn -0.3724 0.9152 -0.1542
vn -0.6641 -0.6952 -0.2751
vn -0.6641 0.6952 -0.2751
vn -0.3724 -0.9152 -0.1542
vn -0.8567 0.3743 -0.3548
vn -0.9239 0.0000 -0.3827
vn -0.2850 -0.9152 -0.2850
vn -0.6557 0.3743 -0.6557
vn -0.7071 0.0000 -0.7071
vn -0.6557 -0.3743 -0.6557
vn -0.2850 0.9152 -0.2850
vn -0.5083 -0.6952 -0.5083
vn -0.5083 0.6952 -0.5083
vn -0.1542 -0.9152 -0.3724
vn -0.3548 0.3743 -0.8567
vn -0.3827 0.0000 -0.9239
vn -0.3548 -0.3743 -0.8567
vn -0.1542 0.9152 -0.3724
vn -0.2751 -0.6952 -0.6641
vn -0.2751 0.6952 -0.6641
usemtl sky_sphere
s 1
f 114/1/1 4/2/2 11/3/3
f 112/4/4 7/5/5 8/6/6
f 112/4/4 9/7/7 3/8/8
f 111/9/9 110/10/10 5/11/11
f 113/12/12 9/7/7 10/13/13
f 111/9/9 6/14/14 1/15/15
f 113/12/12 11/3/3 4/2/2
f 1/15/15 7/5/5 2/16/16
f 114/1/1 11/3/3 18/17/17
f 7/5/5 15/18/18 8/6/6
f 8/6/6 16/19/19 9/7/7
f 5/11/11 110/10/10 12/20/20
f 9/7/7 17/21/21 10/13/13
f 5/11/11 13/22/22 6/14/14
f 10/13/13 18/17/17 11/3/3
f 6/14/14 14/23/23 7/5/5
f 18/17/17 24/24/24 25/25/25
f 13/22/22 21/26/26 14/23/23
f 114/1/1 18/17/17 25/25/25
f 15/18/18 21/26/26 22/27/27
f 15/18/18 23/28/28 16/19/19
f 12/20/20 110/10/10 19/29/29
f 16/19/19 24/24/24 17/21/21
f 13/22/22 19/29/29 20/30/30
f 23/28/28 31/31/31 24/24/24
f 20/30/30 26/32/32 27/33/33
f 25/25/25 31/31/31 32/34/34
f 20/30/30 28/35/35 21/26/26
f 114/1/1 25/25/25 32/34/34
f 21/26/26 29/36/36 22/27/27
f 22/27/27 30/37/37 23/28/28
f 19/29/29 110/10/10 26/32/32
f 29/36/36 37/38/38 30/37/37
f 26/32/32 110/10/10 33/39/39
f 30/37/37 38/40/40 31/31/31
f 27/33/33 33/39/39 34/41/41
f 31/31/31 39/42/42 32/34/34
f 28/35/35 34/41/41 35/43/43
f 114/1/1 32/34/34 39/42/42
f 28/35/35 36/44/44 29/36/36
f 114/1/1 39/42/42 46/45/45
f 35/43/43 43/46/46 36/44/44
f 36/44/44 44/47/47 37/38/38
f 33/39/39 110/10/10 40/48/48
f 37/38/38 45/49/49 38/40/40
f 34/41/41 40/48/48 41/50/50
f 38/40/40 46/45/45 39/42/42
f 34/41/41 42/51/51 35/43/43
f 46/45/45 52/52/52 53/53/53
f 41/50/50 49/54/54 42/51/51
f 114/55/1 46/45/45 53/53/53
f 43/46/46 49/54/54 50/56/55
f 43/46/46 51/57/56 44/47/47
f 40/48/48 110/10/10 47/58/57
f 44/47/47 52/52/52 45/49/49
f 41/50/50 47/58/57 48/59/58
f 51/57/56 59/60/59 52/52/52
f 48/59/58 54/61/60 55/62/61
f 53/53/53 59/60/59 60/63/62
f 48/59/58 56/64/63 49/54/54
f 114/55/1 53/53/53 60/63/62
f 49/54/54 57/65/64 50/56/55
f 50/56/55 58/66/65 51/57/56
f 47/58/57 110/10/10 54/61/60
f 57/65/64 65/67/66 58/66/65
f 54/61/60 110/10/10 61/68/67
f 58/66/65 66/69/68 59/60/59
f 55/62/61 61/68/67 62/70/69
f 60/63/62 66/69/68 67/71/70
f 55/62/61 63/72/71 56/64/63
f 114/55/1 60/63/62 67/71/70
f 56/64/63 64/73/72 57/65/64
f 114/55/1 67/71/70 74/74/73
f 64/73/72 70/75/74 71/76/75
f 64/73/72 72/77/76 65/67/66
f 61/68/67 110/10/10 68/78/77
f 66/69/68 72/77/76 73/79/78
f 61/68/67 69/80/79 62/70/69
f 66/69/68 74/74/73 67/71/70
f 62/70/69 70/75/74 63/72/71
f 73/79/78 81/81/80 74/74/73
f 70/75/74 76/82/81 77/83/82
f 114/55/1 74/74/73 81/81/80
f 70/75/74 78/84/83 71/76/75
f 71/76/75 79/85/84 72/77/76
f 68/78/77 110/10/10 75/86/85
f 72/77/76 80/87/86 73/79/78
f 69/80/79 75/88/85 76/82/81
f 80/87/86 86/89/87 87/90/88
f 76/82/81 82/91/89 83/92/90
f 81/81/80 87/90/88 88/93/91
f 76/82/81 84/94/92 77/83/82
f 114/55/1 81/81/80 88/93/91
f 77/83/82 85/95/93 78/84/83
f 78/84/83 86/89/87 79/85/84
f 75/86/85 110/10/10 82/96/89
f 85/95/93 93/97/94 86/89/87
f 82/96/89 110/10/10 89/98/95
f 87/90/88 93/97/94 94/99/96
f 83/92/90 89/100/95 90/101/97
f 87/90/88 95/102/98 88/93/91
f 83/92/90 91/103/99 84/94/92
f 114/55/1 88/93/91 95/102/98
f 85/95/93 91/103/99 92/104/100
f 114/55/1 95/102/98 102/105/101
f 92/104/100 98/106/102 99/107/103
f 92/104/100 100/108/104 93/97/94
f 89/98/95 110/10/10 96/109/105
f 93/97/94 101/110/106 94/99/96
f 90/101/97 96/111/105 97/112/107
f 94/99/96 102/105/101 95/102/98
f 90/101/97 98/106/102 91/103/99
f 101/110/106 109/113/108 102/105/101
f 97/112/107 105/114/109 98/106/102
f 114/55/1 102/105/101 109/113/108
f 98/106/102 106/115/110 99/107/103
f 99/107/103 107/116/111 100/108/104
f 96/109/105 110/10/10 103/117/112
f 100/108/104 108/118/113 101/110/106
f 97/112/107 103/119/112 104/120/114
f 108/121/113 3/8/8 113/12/12
f 103/117/112 1/15/15 104/122/114
f 108/121/113 4/2/2 109/123/108
f 105/114/109 1/124/15 2/125/16
f 114/55/1 109/113/108 4/126/2
f 106/127/110 2/16/16 112/4/4
f 106/127/110 3/8/8 107/128/111
f 103/117/112 110/10/10 111/9/9
f 112/4/4 2/16/16 7/5/5
f 112/4/4 8/6/6 9/7/7
f 113/12/12 3/8/8 9/7/7
f 111/9/9 5/11/11 6/14/14
f 113/12/12 10/13/13 11/3/3
f 1/15/15 6/14/14 7/5/5
f 7/5/5 14/23/23 15/18/18
f 8/6/6 15/18/18 16/19/19
f 9/7/7 16/19/19 17/21/21
f 5/11/11 12/20/20 13/22/22
f 10/13/13 17/21/21 18/17/17
f 6/14/14 13/22/22 14/23/23
f 18/17/17 17/21/21 24/24/24
f 13/22/22 20/30/30 21/26/26
f 15/18/18 14/23/23 21/26/26
f 15/18/18 22/27/27 23/28/28
f 16/19/19 23/28/28 24/24/24
f 13/22/22 12/20/20 19/29/29
f 23/28/28 30/37/37 31/31/31
f 20/30/30 19/29/29 26/32/32
f 25/25/25 24/24/24 31/31/31
f 20/30/30 27/33/33 28/35/35
f 21/26/26 28/35/35 29/36/36
f 22/27/27 29/36/36 30/37/37
f 29/36/36 36/44/44 37/38/38
f 30/37/37 37/38/38 38/40/40
f 27/33/33 26/32/32 33/39/39
f 31/31/31 38/40/40 39/42/42
f 28/35/35 27/33/33 34/41/41
f 28/35/35 35/43/43 36/44/44
f 35/43/43 42/51/51 43/46/46
f 36/44/44 43/46/46 44/47/47
f 37/38/38 44/47/47 45/49/49
f 34/41/41 33/39/39 40/48/48
f 38/40/40 45/49/49 46/45/45
f 34/41/41 41/50/50 42/51/51
f 46/45/45 45/49/49 52/52/52
f 41/50/50 48/59/58 49/54/54
f 43/46/46 42/51/51 49/54/54
f 43/46/46 50/56/55 51/57/56
f 44/47/47 51/57/56 52/52/52
f 41/50/50 40/48/48 47/58/57
f 51/57/56 58/66/65 59/60/59
f 48/59/58 47/58/57 54/61/60
f 53/53/53 52/52/52 59/60/59
f 48/59/58 55/62/61 56/64/63
f 49/54/54 56/64/63 57/65/64
f 50/56/55 57/65/64 58/66/65
f 57/65/64 64/73/72 65/67/66
f 58/66/65 65/67/66 66/69/68
f 55/62/61 54/61/60 61/68/67
f 60/63/62 59/60/59 66/69/68
f 55/62/61 62/70/69 63/72/71
f 56/64/63 63/72/71 64/73/72
f 64/73/72 63/72/71 70/75/74
f 64/73/72 71/76/75 72/77/76
f 66/69/68 65/67/66 72/77/76
f 61/68/67 68/129/77 69/80/79
f 66/69/68 73/79/78 74/74/73
f 62/70/69 69/80/79 70/75/74
f 73/79/78 80/87/86 81/81/80
f 70/75/74 69/80/79 76/82/81
f 70/75/74 77/83/82 78/84/83
f 71/76/75 78/84/83 79/85/84
f 72/77/76 79/85/84 80/87/86
f 69/80/79 68/129/77 75/88/85
f 80/87/86 79/85/84 86/89/87
f 76/82/81 75/88/85 82/91/89
f 81/81/80 80/87/86 87/90/88
f 76/82/81 83/92/90 84/94/92
f 77/83/82 84/94/92 85/95/93
f 78/84/83 85/95/93 86/89/87
f 85/95/93 92/104/100 93/97/94
f 87/90/88 86/89/87 93/97/94
f 83/92/90 82/91/89 89/100/95
f 87/90/88 94/99/96 95/102/98
f 83/92/90 90/101/97 91/103/99
f 85/95/93 84/94/92 91/103/99
f 92/104/100 91/103/99 98/106/102
f 92/104/100 99/107/103 100/108/104
f 93/97/94 100/108/104 101/110/106
f 90/101/97 89/100/95 96/111/105
f 94/99/96 101/110/106 102/105/101
f 90/101/97 97/112/107 98/106/102
f 101/110/106 108/118/113 109/113/108
f 97/112/107 104/120/114 105/114/109
f 98/106/102 105/114/109 106/115/110
f 99/107/103 106/115/110 107/116/111
f 100/108/104 107/116/111 108/118/113
f 97/112/107 96/111/105 103/119/112
f 108/121/113 107/128/111 3/8/8
f 103/117/112 111/9/9 1/15/15
f 108/121/113 113/12/12 4/2/2
f 105/114/109 104/120/114 1/124/15
f 106/127/110 105/130/109 2/16/16
f 106/127/110 112/4/4 3/8/8
