# Blender v2.79 (sub 0) OBJ File: 'emitters.blend'
# www.blender.org
mtllib ring.mtl
o ring
v 0.000000 0.000000 -10.000000
v -1.950903 0.000000 -9.807853
v -3.826835 0.000000 -9.238795
v -5.555702 0.000000 -8.314696
v -7.071068 0.000000 -7.071068
v -8.314696 0.000000 -5.555702
v -9.238795 0.000000 -3.826834
v -9.807853 0.000000 -1.950904
v -10.000000 0.000000 -0.000001
v -9.807853 0.000000 1.950902
v -9.238795 0.000000 3.826833
v -8.314696 0.000000 5.555702
v -7.071068 0.000000 7.071068
v -5.555702 0.000000 8.314696
v -3.826833 0.000000 9.238796
v -1.950901 0.000000 9.807853
v 0.000003 0.000000 10.000000
v 1.950907 0.000000 9.807852
v 3.826839 0.000000 9.238793
v 5.555707 0.000000 8.314693
v 7.071073 0.000000 7.071063
v 8.314700 0.000000 5.555696
v 9.238798 0.000000 3.826827
v 9.807855 0.000000 1.950895
v 10.000000 0.000000 -0.000010
v 9.807851 0.000000 -1.950914
v 9.238791 0.000000 -3.826845
v 8.314690 0.000000 -5.555713
v 7.071059 0.000000 -7.071076
v 5.555691 0.000000 -8.314704
v 3.826821 0.000000 -9.238801
v 1.950888 0.000000 -9.807856
v -0.000001 0.000000 -1.564282
v -0.305177 0.000000 -1.534225
v -0.598625 0.000000 -1.445209
v -0.869068 0.000000 -1.300653
v -1.106113 0.000000 -1.106115
v -1.300652 0.000000 -0.869070
v -1.445207 0.000000 -0.598627
v -1.534223 0.000000 -0.305179
v -1.564281 0.000000 -0.000003
v -1.534223 0.000000 0.305173
v -1.445207 0.000000 0.598621
v -1.300652 0.000000 0.869064
v -1.106113 0.000000 1.106110
v -0.869068 0.000000 1.300648
v -0.598624 0.000000 1.445203
v -0.305176 0.000000 1.534219
v -0.000000 0.000000 1.564277
v 0.305176 0.000000 1.534219
v 0.598624 0.000000 1.445202
v 0.869067 0.000000 1.300647
v 1.106112 0.000000 1.106109
v 1.300651 0.000000 0.869063
v 1.445205 0.000000 0.598620
v 1.534222 0.000000 0.305172
v 1.564279 0.000000 -0.000004
v 1.534221 0.000000 -0.305180
v 1.445204 0.000000 -0.598628
v 1.300649 0.000000 -0.869071
v 1.106110 0.000000 -1.106117
v 0.869064 0.000000 -1.300655
v 0.598621 0.000000 -1.445210
v 0.305173 0.000000 -1.534225
vn 0.0000 1.0000 0.0000
usemtl None
s off
f 45//1 12//1 13//1
f 27//1 58//1 26//1
f 46//1 13//1 14//1
f 60//1 27//1 28//1
f 47//1 14//1 15//1
f 2//1 33//1 1//1
f 29//1 60//1 28//1
f 48//1 15//1 16//1
f 35//1 2//1 3//1
f 62//1 29//1 30//1
f 49//1 16//1 17//1
f 36//1 3//1 4//1
f 63//1 30//1 31//1
f 18//1 49//1 17//1
f 37//1 4//1 5//1
f 64//1 31//1 32//1
f 51//1 18//1 19//1
f 38//1 5//1 6//1
f 33//1 32//1 1//1
f 20//1 51//1 19//1
f 39//1 6//1 7//1
f 21//1 52//1 20//1
f 40//1 7//1 8//1
f 54//1 21//1 22//1
f 41//1 8//1 9//1
f 55//1 22//1 23//1
f 10//1 41//1 9//1
f 56//1 23//1 24//1
f 43//1 10//1 11//1
f 57//1 24//1 25//1
f 44//1 11//1 12//1
f 26//1 57//1 25//1
f 45//1 44//1 12//1
f 27//1 59//1 58//1
f 46//1 45//1 13//1
f 60//1 59//1 27//1
f 47//1 46//1 14//1
f 2//1 34//1 33//1
f 29//1 61//1 60//1
f 48//1 47//1 15//1
f 35//1 34//1 2//1
f 62//1 61//1 29//1
f 49//1 48//1 16//1
f 36//1 35//1 3//1
f 63//1 62//1 30//1
f 18//1 50//1 49//1
f 37//1 36//1 4//1
f 64//1 63//1 31//1
f 51//1 50//1 18//1
f 38//1 37//1 5//1
f 33//1 64//1 32//1
f 20//1 52//1 51//1
f 39//1 38//1 6//1
f 21//1 53//1 52//1
f 40//1 39//1 7//1
f 54//1 53//1 21//1
f 41//1 40//1 8//1
f 55//1 54//1 22//1
f 10//1 42//1 41//1
f 56//1 55//1 23//1
f 43//1 42//1 10//1
f 57//1 56//1 24//1
f 44//1 43//1 11//1
f 26//1 58//1 57//1
